# xmcd CD database file
#
# Track frame offsets:
#	150
#	12945
#	29267
#	37492
#	50022
#	69740
#	80632
#	93212
#	101632
#	118460
#	130215
#	142660
#	152567
#	167177
#	191165
#	203152
#	213397
#	231437
#	242017
#	252815
#	263122
#
# Disc length: 3645 seconds
#
# Revision: 0
# Processed by: cddbd v1.5.2PL0 Copyright (c) Steve Scherf et al.
# Submitted via: CDex 1.51
#
DISCID=350e3b15
DTITLE=Gery Scott and Gustav Brom - Gery Scott and Gustav Brom
DYEAR=2006
DGENRE=Jazz
TTITLE0=01 - Brom - Vjezd gladiatoru - 1957
TTITLE1=02 - Scott-Brom - Midnight Sun - 1957
TTITLE2=03 - Scott-Brom - When the Saints Go Marching In - 1958
TTITLE3=04 - Scott-Brom - Mack the Knife - 1960
TTITLE4=05 - Brom - Annie Laurie - 1960
TTITLE5=06 - Scott-Brom - Yes Sir That's My Baby - 1960
TTITLE6=07 - Scott-Brom - Please Don't Talk About Me - 1960
TTITLE7=08 - Scott-Brom - Billie's Banjo Band - 1957
TTITLE8=09 - Brom - I Can't Give You Anything But Love -1958
TTITLE9=10 - Scott-Brom - Some of These Days - 1958
TTITLE10=11 - Scott-Brom - Allright OK You Win - 1960
TTITLE11=12 - Scott-Brom - Alexander's Ragtime Band - 1958
TTITLE12=13 - Brom - Ja-da - 1956
TTITLE13=14 - Scott-Brom - Basin Street Blues - 1957
TTITLE14=15 - Scott-Brom - Darktown Strutter's Ball - 1957
TTITLE15=16 - Scott-Brom - Chicago - 1958
TTITLE16=17 - Brom - Down By the Riverside - 1961
TTITLE17=18 - Scott-Brom - Swedish Polka - 1957
TTITLE18=19 - Scott-Brom - Way Down Yonder In New Orleans - 1957
TTITLE19=20 - Scott-Brom - I'm Gonna Sit Right Down - 1960
TTITLE20=21 - Brom - Margie - 1960
EXTD=YEAR: 2006
EXTT0=
EXTT1=
EXTT2=
EXTT3=
EXTT4=
EXTT5=
EXTT6=
EXTT7=
EXTT8=
EXTT9=
EXTT10=
EXTT11=
EXTT12=
EXTT13=
EXTT14=
EXTT15=
EXTT16=
EXTT17=
EXTT18=
EXTT19=
EXTT20=
PLAYORDER=
